<!DOCTYPE svg PUBLIC "-//W3C//DTD SVG 1.1//EN" "http://www.w3.org/Graphics/SVG/1.1/DTD/svg11.dtd">
<!-- Uploaded to: SVG Repo, www.svgrepo.com, Transformed by: SVG Repo Mixer Tools -->
<svg fill="#683CC0" height="800px" width="800px" version="1.1" id="Layer_1" xmlns="http://www.w3.org/2000/svg" xmlns:xlink="http://www.w3.org/1999/xlink" viewBox="0 0 331.422 331.422" xml:space="preserve">
<g id="SVGRepo_bgCarrier" stroke-width="0"/>
<g id="SVGRepo_tracerCarrier" stroke-linecap="round" stroke-linejoin="round"/>
<g id="SVGRepo_iconCarrier"> <g id="XMLID_225_"> <path id="XMLID_226_" d="M170.356,216.422c0-8.284-6.716-15-15-15H55.355c-8.284,0-15,6.716-15,15c0,8.284,6.716,15,15,15h33.532 c18.628,21.715,44.12,35.434,72.225,39.037v30.963h-75c-8.284,0-15,6.716-15,15c0,8.284,6.716,15,15,15h180.001 c8.284,0,15-6.716,15-15c0-8.284-6.716-15-15-15h-75.001v-30.985c56.327-7.394,99.954-55.703,99.954-114.016 c0-25.659-8.353-50.032-23.762-70.024l18.363-18.364c5.857-5.858,5.857-15.354,0-21.213l-10.606-10.606l3.536-3.536 c5.857-5.858,5.857-15.354,0-21.213s-15.355-5.858-21.213,0L253.849,15L243.242,4.394c-5.857-5.858-15.354-5.857-21.213-0.001 l-98.996,98.994c-2.813,2.814-4.394,6.629-4.394,10.607s1.581,7.793,4.394,10.606l42.427,42.427 c2.929,2.93,6.768,4.394,10.606,4.394c3.839,0,7.678-1.464,10.606-4.394l59.159-59.159c9.889,14.146,15.234,30.934,15.234,48.553 c0,46.869-38.131,85-85,85c-14.323,0-28.027-3.491-40.162-9.999h19.452C163.641,231.422,170.356,224.706,170.356,216.422z"/> </g> </g>
</svg>